<svg viewBox="0 0 310 310" fill="none" xmlns="http://www.w3.org/2000/svg"><path d="M140 185l-61.82 48.98c-.31.25-.75.25-1.06 0-.37-.29-.43-.83-.14-1.19l48.98-61.82-112.16-13.34c-.54-.06-.96-.49-1.03-1.03-.08-.64.38-1.23 1.03-1.31l112.16-13.34-48.98-61.82c-.25-.31-.25-.75 0-1.06.29-.37.83-.43 1.19-.14L140 127.91l13.34-112.16c.06-.54.49-.96 1.03-1.03.64-.08 1.23.38 1.31 1.03l13.34 112.16 61.82-48.98c.31-.25.75-.25 1.06 0 .37.29.43.83.14 1.19l-1.19-1.19-61.82 48.98 61.82-48.98c.31-.25.75-.25 1.06 0 .37.29.43.83.14 1.19l-48.98 61.82 48.98-61.82-48.98 61.82 112.16 13.34c.54.06.96.49 1.03 1.03.08.64-.38 1.23-1.03 1.31l-112.16 13.34 48.98 61.82-48.98-61.82 48.98 61.82c.25.31.25.75 0 1.06v-1.06c.25.31.25.75 0 1.06-.29.37-.83.43-1.19.14l-61.82-48.98-13.34 112.16c-.06.54-.49.96-1.03 1.03-.64.08-1.23-.38-1.31-1.03L140 185Z" fill="currentColor"/></svg>
